<svg xmlns="http://www.w3.org/2000/svg" viewBox="0 0 64 64">
  <defs><linearGradient id="or" x1="0" y1="0" x2="0.2" y2="1">
    <stop offset="0" stop-color="#f7e6b0"/><stop offset="45%" stop-color="#d9b451"/><stop offset="100%" stop-color="#8a6d12"/>
  </linearGradient></defs>
  <rect width="64" height="64" rx="14" fill="#0b0b0d"/>
  <g transform="translate(32 34) scale(.30)">
    <path d="M-118-70 -52 62 -34 62 -100-70z" fill="url(#or)"/>
    <path d="M-52 62 14-70 -4-70 -70 62z" fill="url(#or)"/>
    <path d="M20-70h56c34 0 56 22 56 52s-22 52-56 52H44V62H20zm24 22v40h30c18 0 28-8 28-20s-10-20-28-20z" fill="url(#or)"/>
    <path d="M-16 62C-2 6 20-34 46-70h26C40-30 16 10 6 62z" fill="#fff"/>
  </g>
</svg>
